<?xml version="1.0" encoding="UTF-8"?>
<!DOCTYPE svg PUBLIC "-//W3C//DTD SVG 1.1//EN" "http://www.w3.org/Graphics/SVG/1.1/DTD/svg11.dtd">
<!-- Creator: CorelDRAW 2020 (64 Bit) -->
<svg xmlns="http://www.w3.org/2000/svg" xml:space="preserve" width="78.0215mm" height="27.8672mm" version="1.1" style="shape-rendering:geometricPrecision; text-rendering:geometricPrecision; image-rendering:optimizeQuality; fill-rule:evenodd; clip-rule:evenodd"
viewBox="0 0 228.54 81.63"
 xmlns:xlink="http://www.w3.org/1999/xlink"
 xmlns:xodm="http://www.corel.com/coreldraw/odm/2003">
 <defs>
  <style type="text/css">
   <![CDATA[
    .str1 {stroke:#201E1E;stroke-width:0.59;stroke-miterlimit:22.9256}
    .str0 {stroke:midnightblue;stroke-width:0.59;stroke-miterlimit:22.9256}
    .str2 {stroke:#201E1E;stroke-width:0.59;stroke-linejoin:round;stroke-miterlimit:22.9256}
    .fil0 {fill:#201E1E}
    .fil2 {fill:#201E1E;fill-rule:nonzero}
    .fil1 {fill:midnightblue;fill-rule:nonzero}
   ]]>
  </style>
 </defs>
 <g id="Camada_x0020_1">
  <metadata id="CorelCorpID_0Corel-Layer"/>
  <g id="_1592839349488">
   <path class="fil0" d="M41.9 16.31c-2.01,8.18 -2.11,7.71 -8.06,11.66 -1.54,1.02 -3.22,1.69 -4.04,2.96 9.26,-1.5 7.49,-5.87 15.4,-0.88l0 -9.23 0.73 0 10.93 0 -2.66 -6.76c-3.78,0.02 -7.76,1.22 -10.49,-0.37 -2.58,-1.51 -5.17,-3.34 -8.08,-4.48 0.62,1.26 5.49,6.53 6.27,7.1z"/>
   <path class="fil0" d="M21.38 65.31l-0.52 -0.54c-0.71,-0.6 -0.1,-0.16 -0.85,-0.66 -8.74,-5.97 -15.52,-12.91 -16.49,-25.65 -0.92,-12.09 4.7,-25.2 14.06,-30.51 4.84,2.89 2.88,3.83 2.02,9.72 1.17,-0.44 2.48,-3.1 3.3,-4.36 3.49,-5.34 7.48,-1.99 9.83,-6.12 1.06,-1.85 1.92,-3.54 2.64,-5.31 5.49,-0.4 7.75,0.71 12.38,1.6 -1.32,-1.43 -4.11,-2.1 -6.24,-2.57 -2.26,-0.5 -5.03,-0.91 -7.53,-0.9 -26.35,0.12 -41.08,27.93 -30.58,48.88 3.14,6.27 10.44,14.28 17.97,16.43z"/>
   <path class="fil0" d="M6.87 35.65c0.94,2.93 2.68,5.82 4.26,8.78 1.6,3 1.22,9.79 2.24,11.14l1.16 -7.54c11.3,-4.82 8.16,-1 16.18,2.6 -0.97,-2.59 -4.94,-6.06 -5.41,-7.7 -0.45,-1.54 1.5,-8.71 1.79,-11.08 -2.27,-1.15 -8.13,-4.48 -9.98,-5.98l-10.24 9.79z"/>
  </g>
  <path class="fil1 str0" d="M45.93 21.56l4.08 0 0 41.18 -4.08 0 0 -41.18zm2.8 37.38l14.87 0 0 3.8 -14.87 0 0 -3.8zm0 -18.55l13.46 0 0 3.8 -13.46 0 0 -3.8zm0 -18.83l14.87 0 0 3.8 -14.87 0 0 -3.8z"/>
  <polygon class="fil2 str1" points="82.63,46.08 82.63,49.88 68.13,49.88 68.13,46.08 "/>
  <path class="fil2 str1" d="M91.56 42.97l8.78 0c0.83,0 1.55,-0.18 2.15,-0.55 0.61,-0.37 1.06,-0.91 1.38,-1.61 0.31,-0.71 0.46,-1.57 0.46,-2.56l0 -8.01c0,-1.04 -0.15,-1.92 -0.46,-2.65 -0.32,-0.72 -0.77,-1.29 -1.36,-1.66 -0.6,-0.38 -1.31,-0.56 -2.17,-0.56l-8.78 0 0 -3.8 8.57 0c1.74,0 3.23,0.34 4.47,1.02 1.24,0.68 2.18,1.66 2.83,2.96 0.65,1.3 0.98,2.85 0.98,4.69l0 8.07c0,1.79 -0.33,3.32 -0.98,4.58 -0.66,1.27 -1.6,2.23 -2.83,2.89 -1.24,0.66 -2.73,1 -4.47,1l-8.57 0 0 -3.8zm-2.98 -21.41l4.08 0 0 41.18 -4.08 0 0 -41.18z"/>
  <path class="fil2 str1" d="M113.36 21.56l4.08 0 0 41.18 -4.08 0 0 -41.18zm2.8 37.38l14.87 0 0 3.8 -14.87 0 0 -3.8zm0 -18.55l13.46 0 0 3.8 -13.46 0 0 -3.8zm0 -18.83l14.87 0 0 3.8 -14.87 0 0 -3.8z"/>
  <path class="fil2 str1" d="M135.29 21.56l4.08 0 0 41.18 -4.08 0 0 -41.18zm2.89 37.38l14.22 0 0 3.8 -14.22 0 0 -3.8z"/>
  <path class="fil2 str1" d="M164.74 21.56l4.93 0 9.51 41.18 -4.52 0 -7.45 -36.62 -7.44 36.62 -4.53 0 9.51 -41.18zm-4.21 27.39l13.99 0 0 3.8 -13.99 0 0 -3.8z"/>
  <path class="fil2 str1" d="M185.07 58.94l10.03 0c0.98,0 1.73,-0.29 2.26,-0.87 0.53,-0.59 0.79,-1.42 0.79,-2.49l0 -26.85c0,-1.07 -0.26,-1.9 -0.79,-2.48 -0.53,-0.59 -1.29,-0.88 -2.26,-0.88l-10.03 0 0 -3.8 9.86 0c1.55,0 2.87,0.29 3.96,0.87 1.09,0.57 1.92,1.41 2.49,2.51 0.57,1.11 0.85,2.45 0.85,4.01l0 26.39c0,1.57 -0.29,2.91 -0.86,4.01 -0.58,1.1 -1.41,1.94 -2.51,2.52 -1.09,0.57 -2.42,0.86 -3.96,0.86l-9.83 0 0 -3.8zm-2.2 -37.38l4.08 0 0 41.18 -4.08 0 0 -41.18z"/>
  <path class="fil2 str1" d="M213.73 21.56l4.93 0 9.51 41.18 -4.52 0 -7.45 -36.62 -7.44 36.62 -4.53 0 9.51 -41.18zm-4.21 27.39l13.99 0 0 3.8 -13.99 0 0 -3.8z"/>
  <path class="fil2" d="M48.9 81.63c-0.62,0 -1.15,-0.13 -1.6,-0.39 -0.44,-0.26 -0.79,-0.63 -1.02,-1.12 -0.23,-0.49 -0.35,-1.08 -0.35,-1.76l0 -6.5c0,-0.69 0.12,-1.28 0.35,-1.77 0.23,-0.49 0.57,-0.86 1.02,-1.12 0.44,-0.26 0.97,-0.39 1.6,-0.39 0.63,0 1.16,0.13 1.61,0.39 0.45,0.26 0.79,0.63 1.02,1.12 0.23,0.49 0.35,1.08 0.35,1.76l0 0.47 -1.26 0 0 -0.47c0,-0.43 -0.07,-0.8 -0.2,-1.11 -0.13,-0.31 -0.33,-0.54 -0.58,-0.7 -0.26,-0.16 -0.56,-0.24 -0.93,-0.24 -0.36,0 -0.66,0.08 -0.92,0.24 -0.26,0.16 -0.45,0.4 -0.58,0.7 -0.14,0.31 -0.2,0.68 -0.2,1.11l0 6.5c0,0.43 0.07,0.79 0.2,1.1 0.13,0.31 0.33,0.54 0.58,0.7 0.25,0.16 0.56,0.24 0.92,0.24 0.36,0 0.67,-0.08 0.93,-0.24 0.25,-0.16 0.45,-0.39 0.58,-0.7 0.13,-0.3 0.2,-0.67 0.2,-1.11l0 -0.47 1.26 0 0 0.47c0,0.69 -0.11,1.27 -0.35,1.76 -0.23,0.49 -0.57,0.86 -1.02,1.12 -0.44,0.26 -0.98,0.39 -1.61,0.39z"/>
  <path id="1" class="fil2" d="M54.06 74.91l2.36 0c0.38,0 0.71,-0.07 0.98,-0.21 0.27,-0.14 0.48,-0.35 0.62,-0.62 0.14,-0.27 0.22,-0.6 0.22,-0.98l0 -1.32c0,-0.4 -0.07,-0.74 -0.22,-1.03 -0.14,-0.28 -0.35,-0.5 -0.62,-0.65 -0.27,-0.15 -0.6,-0.22 -0.98,-0.22l-2.36 0 0 -1.18 2.28 0c0.67,0 1.24,0.11 1.71,0.34 0.47,0.22 0.84,0.56 1.09,0.99 0.25,0.44 0.37,0.96 0.37,1.57l0 1.49c0,0.63 -0.12,1.16 -0.37,1.61 -0.25,0.45 -0.61,0.79 -1.09,1.02 -0.47,0.23 -1.05,0.35 -1.71,0.35l-2.28 0 0 -1.18zm-0.78 -6.21l1.27 0 0 12.79 -1.27 0 0 -12.79zm3.43 6.99l1.13 -0.4 2.04 6.2 -1.47 0 -1.7 -5.8z"/>
  <polygon id="2" class="fil2" points="62.85,81.5 61.59,81.5 61.59,68.72 62.85,68.72 "/>
  <path id="3" class="fil2" d="M66.96 68.72l1.53 0 2.95 12.78 -1.4 0 -2.31 -11.36 -2.31 11.36 -1.41 0 2.95 -12.78zm-1.31 8.5l4.34 0 0 1.18 -4.34 0 0 -1.18z"/>
  <path id="4" class="fil2" d="M73.27 80.32l3.11 0c0.3,0 0.54,-0.09 0.7,-0.27 0.16,-0.18 0.25,-0.44 0.25,-0.77l0 -8.33c0,-0.33 -0.08,-0.59 -0.25,-0.77 -0.17,-0.18 -0.4,-0.27 -0.7,-0.27l-3.11 0 0 -1.18 3.06 0c0.48,0 0.89,0.09 1.23,0.27 0.34,0.18 0.6,0.44 0.77,0.78 0.18,0.35 0.26,0.76 0.26,1.25l0 8.19c0,0.49 -0.09,0.9 -0.27,1.24 -0.18,0.34 -0.44,0.6 -0.78,0.78 -0.34,0.18 -0.75,0.27 -1.23,0.27l-3.05 0 0 -1.18zm-0.68 -11.6l1.27 0 0 12.78 -1.27 0 0 -12.78z"/>
  <path id="5" class="fil2" d="M83.18 81.63c-0.67,0 -1.24,-0.13 -1.72,-0.38 -0.47,-0.25 -0.84,-0.62 -1.09,-1.1 -0.25,-0.48 -0.37,-1.06 -0.37,-1.74l0 -6.61c0,-0.68 0.12,-1.26 0.37,-1.74 0.25,-0.48 0.61,-0.85 1.09,-1.1 0.47,-0.25 1.05,-0.38 1.72,-0.38 0.67,0 1.24,0.13 1.71,0.38 0.47,0.25 0.84,0.62 1.09,1.1 0.25,0.48 0.37,1.06 0.37,1.74l0 6.61c0,0.68 -0.12,1.26 -0.37,1.74 -0.25,0.48 -0.61,0.85 -1.09,1.1 -0.47,0.25 -1.05,0.38 -1.71,0.38zm0 -1.24c0.4,0 0.75,-0.07 1.03,-0.23 0.29,-0.15 0.5,-0.37 0.65,-0.65 0.15,-0.29 0.22,-0.63 0.22,-1.04l0 -6.73c0,-0.41 -0.07,-0.75 -0.22,-1.04 -0.15,-0.29 -0.37,-0.5 -0.65,-0.65 -0.29,-0.15 -0.63,-0.22 -1.03,-0.22 -0.4,0 -0.75,0.07 -1.03,0.22 -0.28,0.15 -0.5,0.37 -0.65,0.65 -0.15,0.29 -0.22,0.63 -0.22,1.04l0 6.73c0,0.4 0.07,0.75 0.22,1.04 0.15,0.29 0.37,0.5 0.65,0.65 0.29,0.15 0.63,0.23 1.03,0.23z"/>
  <path id="6" class="fil2" d="M88.71 74.91l2.36 0c0.38,0 0.71,-0.07 0.98,-0.21 0.27,-0.14 0.48,-0.35 0.62,-0.62 0.14,-0.27 0.22,-0.6 0.22,-0.98l0 -1.32c0,-0.4 -0.07,-0.74 -0.22,-1.03 -0.14,-0.28 -0.35,-0.5 -0.62,-0.65 -0.27,-0.15 -0.6,-0.22 -0.98,-0.22l-2.36 0 0 -1.18 2.28 0c0.67,0 1.24,0.11 1.71,0.34 0.47,0.22 0.84,0.56 1.09,0.99 0.25,0.44 0.37,0.96 0.37,1.57l0 1.49c0,0.63 -0.12,1.16 -0.37,1.61 -0.25,0.45 -0.61,0.79 -1.09,1.02 -0.47,0.23 -1.05,0.35 -1.71,0.35l-2.28 0 0 -1.18zm-0.78 -6.21l1.27 0 0 12.79 -1.27 0 0 -12.79zm3.43 6.99l1.13 -0.4 2.04 6.2 -1.47 0 -1.7 -5.8z"/>
  <path id="7" class="fil2" d="M100.37 80.32l3.11 0c0.3,0 0.54,-0.09 0.7,-0.27 0.16,-0.18 0.25,-0.44 0.25,-0.77l0 -8.33c0,-0.33 -0.08,-0.59 -0.25,-0.77 -0.17,-0.18 -0.4,-0.27 -0.7,-0.27l-3.11 0 0 -1.18 3.06 0c0.48,0 0.89,0.09 1.23,0.27 0.34,0.18 0.6,0.44 0.77,0.78 0.18,0.35 0.26,0.76 0.26,1.25l0 8.19c0,0.49 -0.09,0.9 -0.27,1.24 -0.18,0.34 -0.44,0.6 -0.78,0.78 -0.34,0.18 -0.75,0.27 -1.23,0.27l-3.05 0 0 -1.18zm-0.68 -11.6l1.27 0 0 12.78 -1.27 0 0 -12.78z"/>
  <path id="8" class="fil2" d="M107.28 68.72l1.27 0 0 12.78 -1.27 0 0 -12.78zm0.87 11.6l4.61 0 0 1.18 -4.61 0 0 -1.18zm0 -5.76l4.18 0 0 1.18 -4.18 0 0 -1.18zm0 -5.84l4.61 0 0 1.18 -4.61 0 0 -1.18z"/>
  <path id="9" class="fil2" d="M119.29 69.76l1.27 0 0 11.73 -1.27 0 0 -11.73zm-2.47 -1.05l6.2 0 0 1.18 -6.2 0 0 -1.18z"/>
  <polygon id="10" class="fil2" points="125.71,81.5 124.44,81.5 124.44,68.72 125.71,68.72 "/>
  <polygon id="11" class="fil2" points="134.64,68.72 135.88,68.72 135.88,81.5 134.66,81.5 134.66,71.22 134.75,71.79 132.31,79.72 131.23,79.72 128.79,71.96 128.88,71.22 128.88,81.5 127.65,81.5 127.65,68.72 128.89,68.72 131.77,78.04 "/>
  <path id="12" class="fil2" d="M137.64 68.72l1.27 0 0 12.78 -1.27 0 0 -12.78zm0.87 11.6l4.61 0 0 1.18 -4.61 0 0 -1.18zm0 -5.76l4.18 0 0 1.18 -4.18 0 0 -1.18zm0 -5.84l4.61 0 0 1.18 -4.61 0 0 -1.18z"/>
  <path id="13" class="fil2" d="M147.47 81.63c-0.7,0 -1.28,-0.11 -1.74,-0.33 -0.46,-0.22 -0.8,-0.55 -1.03,-1 -0.23,-0.45 -0.34,-1 -0.34,-1.67l0 -0.63 1.25 0 0 0.63c0,0.61 0.15,1.07 0.46,1.38 0.31,0.3 0.78,0.46 1.4,0.46 0.61,0 1.07,-0.15 1.37,-0.46 0.3,-0.31 0.45,-0.77 0.45,-1.38l0 -0.76c0,-0.41 -0.09,-0.76 -0.27,-1.05 -0.18,-0.29 -0.41,-0.53 -0.7,-0.73 -0.28,-0.2 -0.65,-0.41 -1.09,-0.63 -0.02,-0.01 -0.03,-0.01 -0.05,-0.02 -0.02,-0.01 -0.03,-0.01 -0.04,-0.02l-0.12 -0.06c-0.58,-0.29 -1.04,-0.55 -1.39,-0.78 -0.35,-0.23 -0.65,-0.55 -0.89,-0.94 -0.24,-0.39 -0.36,-0.89 -0.36,-1.47l0 -0.62c0,-0.66 0.11,-1.21 0.34,-1.64 0.23,-0.44 0.57,-0.77 1.03,-0.98 0.46,-0.22 1.03,-0.33 1.72,-0.33 0.67,0 1.22,0.11 1.67,0.33 0.45,0.22 0.78,0.55 1,0.99 0.22,0.44 0.34,1 0.34,1.66l0 0.67 -1.25 0 0 -0.67c0,-0.61 -0.15,-1.07 -0.44,-1.37 -0.29,-0.3 -0.73,-0.46 -1.32,-0.46 -0.62,0 -1.08,0.14 -1.39,0.43 -0.31,0.29 -0.46,0.73 -0.46,1.3l0 0.62c0,0.39 0.1,0.73 0.29,1 0.2,0.28 0.43,0.5 0.72,0.68 0.29,0.18 0.67,0.39 1.17,0.63 0.05,0.02 0.09,0.04 0.14,0.07 0.04,0.02 0.09,0.04 0.14,0.07 0.02,0.01 0.04,0.02 0.07,0.03 0.02,0.01 0.04,0.02 0.06,0.03 0.48,0.24 0.89,0.49 1.22,0.74 0.33,0.26 0.6,0.58 0.81,0.99 0.21,0.41 0.32,0.9 0.32,1.48l0 0.81c0,0.67 -0.11,1.22 -0.34,1.66 -0.23,0.44 -0.56,0.77 -1.02,1 -0.46,0.22 -1.03,0.33 -1.71,0.33z"/>
  <g transform="matrix(67.9848 0 0 1 265220 771.447)">
   <polygon class="fil2 str2" points="44.24,67.2 44.24,67.32 12.62,67.32 12.62,67.2 "/>
  </g>
 </g>
</svg>
